<svg width="20" height="20" viewBox="0 0 20 20" fill="none" xmlns="http://www.w3.org/2000/svg">
<mask id="mask0_1749_684" style="mask-type:alpha" maskUnits="userSpaceOnUse" x="1" y="1" width="18" height="18">
<rect x="1.66666" y="1.66667" width="16.6667" height="16.6667" fill="#D9D9D9"/>
</mask>
<g mask="url(#mask0_1749_684)">
<path d="M7.62981 13.0816H10.5888C10.7598 13.0816 10.9034 13.0262 11.0193 12.9155C11.1348 12.8044 11.1926 12.6669 11.1926 12.5029C11.1926 12.3389 11.1348 12.2016 11.0193 12.0909C10.9034 11.9797 10.7598 11.9242 10.5888 11.9242H7.62981C7.45872 11.9242 7.3154 11.9797 7.19986 12.0909C7.08392 12.2016 7.02595 12.3389 7.02595 12.5029C7.02595 12.6669 7.08392 12.8044 7.19986 12.9155C7.3154 13.0262 7.45872 13.0816 7.62981 13.0816ZM7.62981 10.8102H12.3702C12.5412 10.8102 12.6848 10.7546 12.8007 10.6435C12.9162 10.5328 12.974 10.3954 12.974 10.2315C12.974 10.0675 12.9162 9.92998 12.8007 9.81887C12.6848 9.70814 12.5412 9.65278 12.3702 9.65278H7.62981C7.45872 9.65278 7.3154 9.70814 7.19986 9.81887C7.08392 9.92998 7.02595 10.0675 7.02595 10.2315C7.02595 10.3954 7.08392 10.5328 7.19986 10.6435C7.3154 10.7546 7.45872 10.8102 7.62981 10.8102ZM7.62981 8.53877H12.3702C12.5412 8.53877 12.6848 8.48322 12.8007 8.37211C12.9162 8.26138 12.974 8.12404 12.974 7.96007C12.974 7.7961 12.9162 7.65857 12.8007 7.54745C12.6848 7.43673 12.5412 7.38137 12.3702 7.38137H7.62981C7.45872 7.38137 7.3154 7.43673 7.19986 7.54745C7.08392 7.65857 7.02595 7.7961 7.02595 7.96007C7.02595 8.12404 7.08392 8.26138 7.19986 8.37211C7.3154 8.48322 7.45872 8.53877 7.62981 8.53877ZM5.81822 14.9334H14.1817V6.22396H5.81822V14.9334ZM5.81822 16.25C5.43577 16.25 5.1113 16.1198 4.84479 15.8594C4.57788 15.599 4.44443 15.2903 4.44443 14.9334V6.22396C4.44443 5.85745 4.57788 5.5463 4.84479 5.29051C5.1113 5.03511 5.43577 4.90741 5.81822 4.90741H8.23368C8.38464 4.55054 8.61874 4.26833 8.93597 4.06076C9.2528 3.85359 9.60747 3.75 9.99998 3.75C10.3925 3.75 10.7474 3.85359 11.0646 4.06076C11.3814 4.26833 11.6153 4.55054 11.7663 4.90741H14.1817C14.5642 4.90741 14.8889 5.03511 15.1558 5.29051C15.4223 5.5463 15.5555 5.85745 15.5555 6.22396V14.9334C15.5555 15.2903 15.4223 15.599 15.1558 15.8594C14.8889 16.1198 14.5642 16.25 14.1817 16.25H5.81822ZM9.99998 5.77546C10.1409 5.77546 10.2566 5.73206 10.3472 5.64525C10.4378 5.55845 10.4831 5.44753 10.4831 5.3125C10.4831 5.17747 10.4378 5.06655 10.3472 4.97975C10.2566 4.89294 10.1409 4.84954 9.99998 4.84954C9.85908 4.84954 9.74334 4.89294 9.65276 4.97975C9.56218 5.06655 9.51689 5.17747 9.51689 5.3125C9.51689 5.44753 9.56218 5.55845 9.65276 5.64525C9.74334 5.73206 9.85908 5.77546 9.99998 5.77546Z" fill="#191B19"/>
</g>
</svg>
