<svg width="20" height="20" viewBox="0 0 20 20" fill="none" xmlns="http://www.w3.org/2000/svg">
<rect width="20" height="20" rx="4" fill="#E1EAE2"/>
<path d="M6.875 6.25C6.53125 6.25 6.23698 6.1276 5.99219 5.88281C5.7474 5.63802 5.625 5.34375 5.625 5C5.625 4.65625 5.7474 4.36198 5.99219 4.11719C6.23698 3.8724 6.53125 3.75 6.875 3.75C7.21875 3.75 7.51302 3.8724 7.75781 4.11719C8.0026 4.36198 8.125 4.65625 8.125 5C8.125 5.34375 8.0026 5.63802 7.75781 5.88281C7.51302 6.1276 7.21875 6.25 6.875 6.25ZM13.4375 9.375C13.1771 9.375 12.9557 9.28385 12.7734 9.10156C12.5911 8.91927 12.5 8.69792 12.5 8.4375C12.5 8.17708 12.5911 7.95573 12.7734 7.77344C12.9557 7.59115 13.1771 7.5 13.4375 7.5C13.6979 7.5 13.9193 7.59115 14.1016 7.77344C14.2839 7.95573 14.375 8.17708 14.375 8.4375C14.375 8.69792 14.2839 8.91927 14.1016 9.10156C13.9193 9.28385 13.6979 9.375 13.4375 9.375ZM6.25 16.25C6.07292 16.25 5.92448 16.1901 5.80469 16.0703C5.6849 15.9505 5.625 15.8021 5.625 15.625V11.875H5.3125C5.13542 11.875 4.98698 11.8151 4.86719 11.6953C4.7474 11.5755 4.6875 11.4271 4.6875 11.25V8.125C4.6875 7.78125 4.8099 7.48698 5.05469 7.24219C5.29948 6.9974 5.59375 6.875 5.9375 6.875H7.8125C8.04167 6.875 8.25 6.92969 8.4375 7.03906C8.625 7.14844 8.77604 7.30208 8.89062 7.5L11.125 11.3594L11.7656 10.4063C11.849 10.2813 11.9609 10.1823 12.1016 10.1094C12.2422 10.0365 12.3906 10 12.5469 10H14.375C14.6354 10 14.8568 10.0911 15.0391 10.2734C15.2214 10.4557 15.3125 10.6771 15.3125 10.9375V12.5C15.3125 12.6771 15.2526 12.8255 15.1328 12.9453C15.013 13.0651 14.8646 13.125 14.6875 13.125V15.625C14.6875 15.8021 14.6276 15.9505 14.5078 16.0703C14.388 16.1901 14.2396 16.25 14.0625 16.25H12.8125C12.6354 16.25 12.487 16.1901 12.3672 16.0703C12.2474 15.9505 12.1875 15.8021 12.1875 15.625V11.8125L11.8906 12.2344C11.8281 12.3177 11.7526 12.3828 11.6641 12.4297C11.5755 12.4766 11.4792 12.5 11.375 12.5H10.6875C10.5729 12.5 10.4661 12.4714 10.3672 12.4141C10.2682 12.3568 10.1927 12.2813 10.1406 12.1875L8.75 9.75V15.625C8.75 15.8021 8.6901 15.9505 8.57031 16.0703C8.45052 16.1901 8.30208 16.25 8.125 16.25H6.25Z" fill="#094F0C"/>
</svg>
