<svg width="20" height="20" viewBox="0 0 20 20" fill="none" xmlns="http://www.w3.org/2000/svg">
<rect width="20" height="20" rx="4" fill="#E1EAE2"/>
<mask id="mask0_1749_707" style="mask-type:alpha" maskUnits="userSpaceOnUse" x="2" y="2" width="16" height="16">
<rect x="2.5" y="2.5" width="15" height="15" fill="#D9D9D9"/>
</mask>
<g mask="url(#mask0_1749_707)">
<path d="M5 15.8125C4.75 15.9062 4.52875 15.8567 4.33625 15.6637C4.14333 15.4712 4.09375 15.25 4.1875 15L6.20312 9.35937C6.34896 8.92187 6.64583 8.65104 7.09375 8.54687C7.54167 8.44271 7.93229 8.55729 8.26562 8.89062L11.1094 11.7344C11.4427 12.0677 11.5573 12.4583 11.4531 12.9062C11.349 13.3542 11.0781 13.651 10.6406 13.7969L5 15.8125ZM5.8125 14.1875L10.2188 12.625L7.375 9.78125L5.8125 14.1875ZM11.2656 10.0156C11.1719 9.92187 11.125 9.8125 11.125 9.6875C11.125 9.5625 11.1719 9.45312 11.2656 9.35937L14.4375 6.1875C14.7708 5.85417 15.1719 5.6875 15.6406 5.6875C16.1094 5.6875 16.5104 5.85417 16.8438 6.1875L16.9062 6.25C16.9896 6.33333 17.0313 6.4375 17.0313 6.5625C17.0313 6.6875 16.9844 6.79688 16.8906 6.89062C16.7969 6.98438 16.6875 7.03125 16.5625 7.03125C16.4375 7.03125 16.3281 6.98438 16.2344 6.89062L16.1875 6.84375C16.0417 6.69792 15.8594 6.625 15.6406 6.625C15.4219 6.625 15.2396 6.69792 15.0938 6.84375L11.9062 10.0312C11.8229 10.1146 11.7188 10.1562 11.5938 10.1562C11.4688 10.1562 11.3594 10.1094 11.2656 10.0156ZM8.76562 7.51562C8.67187 7.42187 8.625 7.3125 8.625 7.1875C8.625 7.0625 8.67187 6.95312 8.76562 6.85937L8.8125 6.8125C8.95833 6.66667 9.03125 6.48958 9.03125 6.28125C9.03125 6.07292 8.95833 5.89583 8.8125 5.75L8.71875 5.65625C8.63542 5.57292 8.59375 5.46875 8.59375 5.34375C8.59375 5.21875 8.64062 5.10938 8.73438 5.01562C8.82812 4.92188 8.9375 4.875 9.0625 4.875C9.1875 4.875 9.29687 4.92188 9.39062 5.01562L9.46875 5.09375C9.80208 5.42708 9.96875 5.82292 9.96875 6.28125C9.96875 6.73958 9.80208 7.13542 9.46875 7.46875L9.40625 7.53125C9.32292 7.61458 9.21875 7.65625 9.09375 7.65625C8.96875 7.65625 8.85937 7.60937 8.76562 7.51562ZM10.0156 8.76562C9.92187 8.67187 9.875 8.5625 9.875 8.4375C9.875 8.3125 9.92187 8.20312 10.0156 8.10937L11.9375 6.1875C12.0833 6.04167 12.1562 5.85937 12.1562 5.64062C12.1562 5.42187 12.0833 5.23958 11.9375 5.09375L11.25 4.40625C11.1667 4.32292 11.125 4.21875 11.125 4.09375C11.125 3.96875 11.1719 3.85938 11.2656 3.76563C11.3594 3.67188 11.4688 3.625 11.5938 3.625C11.7188 3.625 11.8281 3.67188 11.9219 3.76563L12.5938 4.4375C12.9271 4.77083 13.0938 5.17188 13.0938 5.64062C13.0938 6.10937 12.9271 6.51042 12.5938 6.84375L10.6562 8.78125C10.5729 8.86458 10.4688 8.90625 10.3438 8.90625C10.2188 8.90625 10.1094 8.85937 10.0156 8.76562ZM12.5156 11.2656C12.4219 11.1719 12.375 11.0625 12.375 10.9375C12.375 10.8125 12.4219 10.7031 12.5156 10.6094L13.1875 9.9375C13.5208 9.60417 13.9219 9.4375 14.3906 9.4375C14.8594 9.4375 15.2604 9.60417 15.5938 9.9375L16.2812 10.625C16.3646 10.7083 16.4062 10.8125 16.4062 10.9375C16.4062 11.0625 16.3594 11.1719 16.2656 11.2656C16.1719 11.3594 16.0625 11.4062 15.9375 11.4062C15.8125 11.4062 15.7031 11.3594 15.6094 11.2656L14.9375 10.5937C14.7917 10.4479 14.6094 10.375 14.3906 10.375C14.1719 10.375 13.9896 10.4479 13.8438 10.5937L13.1562 11.2812C13.0729 11.3646 12.9688 11.4062 12.8438 11.4062C12.7188 11.4062 12.6094 11.3594 12.5156 11.2656Z" fill="#094F0C"/>
</g>
</svg>
