<svg width="20" height="20" viewBox="0 0 20 20" fill="none" xmlns="http://www.w3.org/2000/svg">
<rect width="20" height="20" rx="4" fill="#E1EAE2"/>
<mask id="mask0_1749_698" style="mask-type:alpha" maskUnits="userSpaceOnUse" x="2" y="2" width="16" height="16">
<rect x="2.5" y="2.5" width="15" height="15" fill="#D9D9D9"/>
</mask>
<g mask="url(#mask0_1749_698)">
<path d="M6.625 4.375C7.28125 4.375 7.90625 4.51292 8.5 4.78875C9.09375 5.065 9.59375 5.44792 10 5.9375C10.4062 5.44792 10.9062 5.065 11.5 4.78875C12.0938 4.51292 12.7188 4.375 13.375 4.375C14.5417 4.375 15.5208 4.77083 16.3125 5.5625C17.1042 6.35417 17.5 7.33333 17.5 8.5C17.5 8.89583 17.4479 9.28646 17.3438 9.67188C17.2396 10.0573 17.0938 10.4375 16.9062 10.8125C16.7917 10.6146 16.6562 10.4375 16.5 10.2812C16.3438 10.125 16.1615 10 15.9531 9.90625C16.0469 9.66667 16.1198 9.43229 16.1719 9.20312C16.224 8.97396 16.25 8.73958 16.25 8.5C16.25 7.6875 15.974 7.00521 15.4219 6.45312C14.8698 5.90104 14.1875 5.625 13.375 5.625C12.5312 5.625 11.8829 5.85667 11.43 6.32C10.9767 6.78375 10.5 7.30208 10 7.875C9.5 7.29167 9.02354 6.77083 8.57063 6.3125C8.11729 5.85417 7.46875 5.625 6.625 5.625C5.8125 5.625 5.13021 5.90104 4.57812 6.45312C4.02604 7.00521 3.75 7.6875 3.75 8.5C3.75 8.73958 3.77604 8.97396 3.82812 9.20312C3.88021 9.43229 3.95312 9.66667 4.04688 9.90625C3.83854 10 3.65625 10.125 3.5 10.2812C3.34375 10.4375 3.20833 10.6146 3.09375 10.8125C2.90625 10.4375 2.76042 10.0573 2.65625 9.67188C2.55208 9.28646 2.5 8.89583 2.5 8.5C2.5 7.33333 2.89583 6.35417 3.6875 5.5625C4.47917 4.77083 5.45833 4.375 6.625 4.375ZM3.125 16.25C2.94792 16.25 2.79958 16.19 2.68 16.07C2.56 15.9504 2.5 15.8021 2.5 15.625V15.2656C2.5 14.8073 2.72917 14.4402 3.1875 14.1644C3.64583 13.8881 4.25 13.75 5 13.75C5.13542 13.75 5.26312 13.7552 5.38312 13.7656C5.50271 13.776 5.61979 13.7917 5.73438 13.8125C5.58854 14.0208 5.48167 14.2448 5.41375 14.4844C5.34625 14.724 5.3125 14.9792 5.3125 15.25V16.25H3.125ZM6.875 16.25C6.69792 16.25 6.54938 16.19 6.42938 16.07C6.30979 15.9504 6.25 15.8021 6.25 15.625V15.25C6.25 14.5729 6.59646 14.0233 7.28938 13.6012C7.98187 13.1796 8.88542 12.9688 10 12.9688C11.125 12.9688 12.0312 13.1796 12.7188 13.6012C13.4062 14.0233 13.75 14.5729 13.75 15.25V15.625C13.75 15.8021 13.69 15.9504 13.57 16.07C13.4504 16.19 13.3021 16.25 13.125 16.25H6.875ZM14.6875 16.25V15.25C14.6875 14.9792 14.651 14.724 14.5781 14.4844C14.5052 14.2448 14.401 14.0208 14.2656 13.8125C14.3802 13.7917 14.4975 13.776 14.6175 13.7656C14.7371 13.7552 14.8646 13.75 15 13.75C15.75 13.75 16.3542 13.8881 16.8125 14.1644C17.2708 14.4402 17.5 14.8073 17.5 15.2656V15.625C17.5 15.8021 17.44 15.9504 17.32 16.07C17.2004 16.19 17.0521 16.25 16.875 16.25H14.6875ZM10 14.2188C9.40625 14.2188 8.875 14.2994 8.40625 14.4606C7.9375 14.6223 7.66146 14.8021 7.57812 15H12.4219C12.3281 14.7917 12.0496 14.6094 11.5863 14.4531C11.1225 14.2969 10.5938 14.2188 10 14.2188ZM5 13.125C4.65625 13.125 4.36208 13.0027 4.1175 12.7581C3.8725 12.5131 3.75 12.2188 3.75 11.875C3.75 11.5312 3.8725 11.2369 4.1175 10.9919C4.36208 10.7473 4.65625 10.625 5 10.625C5.34375 10.625 5.63792 10.7473 5.8825 10.9919C6.1275 11.2369 6.25 11.5312 6.25 11.875C6.25 12.2188 6.1275 12.5131 5.8825 12.7581C5.63792 13.0027 5.34375 13.125 5 13.125ZM15 13.125C14.6562 13.125 14.3619 13.0027 14.1169 12.7581C13.8723 12.5131 13.75 12.2188 13.75 11.875C13.75 11.5312 13.8723 11.2369 14.1169 10.9919C14.3619 10.7473 14.6562 10.625 15 10.625C15.3438 10.625 15.6381 10.7473 15.8831 10.9919C16.1277 11.2369 16.25 11.5312 16.25 11.875C16.25 12.2188 16.1277 12.5131 15.8831 12.7581C15.6381 13.0027 15.3438 13.125 15 13.125ZM10 12.5C9.47917 12.5 9.03646 12.3177 8.67188 11.9531C8.30729 11.5885 8.125 11.1458 8.125 10.625C8.125 10.1042 8.30729 9.66146 8.67188 9.29688C9.03646 8.93229 9.47917 8.75 10 8.75C10.5208 8.75 10.9635 8.93229 11.3281 9.29688C11.6927 9.66146 11.875 10.1042 11.875 10.625C11.875 11.1458 11.6927 11.5885 11.3281 11.9531C10.9635 12.3177 10.5208 12.5 10 12.5ZM10 10C9.82292 10 9.67458 10.0598 9.555 10.1794C9.435 10.2994 9.375 10.4479 9.375 10.625C9.375 10.8021 9.435 10.9504 9.555 11.07C9.67458 11.19 9.82292 11.25 10 11.25C10.1771 11.25 10.3256 11.19 10.4456 11.07C10.5652 10.9504 10.625 10.8021 10.625 10.625C10.625 10.4479 10.5652 10.2994 10.4456 10.1794C10.3256 10.0598 10.1771 10 10 10Z" fill="#094F0C"/>
</g>
</svg>
