<svg width="20" height="20" viewBox="0 0 20 20" fill="none" xmlns="http://www.w3.org/2000/svg">
<mask id="mask0_1749_732" style="mask-type:alpha" maskUnits="userSpaceOnUse" x="2" y="2" width="16" height="16">
<rect x="2.5" y="2.5" width="15" height="15" fill="#D9D9D9"/>
</mask>
<g mask="url(#mask0_1749_732)">
<path d="M4.82811 15.1875C4.71353 15.0729 4.65624 14.9271 4.65624 14.75C4.65624 14.5729 4.71353 14.4271 4.82811 14.3125L10.7969 8.34376C10.6094 7.90626 10.5833 7.41147 10.7187 6.85939C10.8542 6.30731 11.151 5.81251 11.6094 5.37501C12.1614 4.82293 12.776 4.50001 13.4531 4.40626C14.1302 4.31251 14.6823 4.47918 15.1094 4.90626C15.5364 5.33335 15.7031 5.88543 15.6094 6.56251C15.5156 7.2396 15.1927 7.85418 14.6406 8.40626C14.2031 8.8646 13.7083 9.16147 13.1562 9.29689C12.6042 9.43231 12.1094 9.40626 11.6719 9.21876L10.8906 10L15.2031 14.3125C15.3177 14.4271 15.375 14.5729 15.375 14.75C15.375 14.9271 15.3177 15.0729 15.2031 15.1875C15.0781 15.3125 14.9323 15.375 14.7656 15.375C14.5989 15.375 14.4531 15.3125 14.3281 15.1875L10.0156 10.9063L5.70311 15.1875C5.57811 15.3125 5.43228 15.375 5.26561 15.375C5.09894 15.375 4.95311 15.3125 4.82811 15.1875ZM7.10936 10.2813L5.23436 8.40626C4.76561 7.93751 4.49207 7.39064 4.41374 6.76564C4.33582 6.14064 4.45311 5.5521 4.76561 5.00001C4.86978 4.82293 5.02603 4.72397 5.23436 4.70314C5.44269 4.68231 5.62499 4.75522 5.78124 4.92189L9.10936 8.28126L7.10936 10.2813Z" fill="#191B19"/>
</g>
</svg>
