<svg width="20" height="20" viewBox="0 0 20 20" fill="none" xmlns="http://www.w3.org/2000/svg">
<path d="M5.725 10.119L4.24063 8.63095C4.12188 8.51191 4.0625 8.37302 4.0625 8.21429C4.0625 8.05556 4.12188 7.91667 4.24063 7.79762L5.725 6.30952C5.84375 6.19048 5.98229 6.13095 6.14062 6.13095C6.29896 6.13095 6.4375 6.19048 6.55625 6.30952L8.04063 7.79762C8.15938 7.91667 8.21875 8.05556 8.21875 8.21429C8.21875 8.37302 8.15938 8.51191 8.04063 8.63095L6.55625 10.119C6.4375 10.2381 6.29896 10.2976 6.14062 10.2976C5.98229 10.2976 5.84375 10.2381 5.725 10.119ZM8.8125 16.25C8.64427 16.25 8.50326 16.193 8.38945 16.0789C8.27565 15.9648 8.21875 15.8234 8.21875 15.6548V13.2738C7.72396 13.2341 7.23411 13.1796 6.74922 13.1101C6.26432 13.0407 5.77943 12.9514 5.29453 12.8423C5.1263 12.8026 4.99023 12.7083 4.88633 12.5595C4.78242 12.4107 4.75521 12.252 4.80469 12.0833C4.85417 11.9147 4.9556 11.7907 5.10898 11.7113C5.26237 11.6319 5.42318 11.6121 5.59141 11.6518C6.3138 11.8204 7.04362 11.9345 7.78086 11.994C8.5181 12.0536 9.25781 12.0833 10 12.0833C10.7422 12.0833 11.4819 12.0536 12.2191 11.994C12.9564 11.9345 13.6862 11.8204 14.4086 11.6518C14.5768 11.6121 14.7376 11.6319 14.891 11.7113C15.0444 11.7907 15.1458 11.9147 15.1953 12.0833C15.2448 12.252 15.2176 12.4107 15.1137 12.5595C15.0098 12.7083 14.8737 12.8026 14.7055 12.8423C14.2206 12.9514 13.7357 13.0407 13.2508 13.1101C12.7659 13.1796 12.276 13.2341 11.7812 13.2738V15.6548C11.7812 15.8234 11.7243 15.9648 11.6105 16.0789C11.4967 16.193 11.3557 16.25 11.1875 16.25H8.8125ZM6.14062 8.86905L6.79375 8.21429L6.14062 7.55952L5.4875 8.21429L6.14062 8.86905ZM10 7.32143C9.50521 7.32143 9.08464 7.14782 8.73828 6.8006C8.39193 6.45337 8.21875 6.03175 8.21875 5.53571C8.21875 5.03968 8.39193 4.61806 8.73828 4.27083C9.08464 3.92361 9.50521 3.75 10 3.75C10.4948 3.75 10.9154 3.92361 11.2617 4.27083C11.6081 4.61806 11.7812 5.03968 11.7812 5.53571C11.7812 6.03175 11.6081 6.45337 11.2617 6.8006C10.9154 7.14782 10.4948 7.32143 10 7.32143ZM10 11.4881C9.67344 11.4881 9.39388 11.3715 9.16133 11.1384C8.92878 10.9053 8.8125 10.625 8.8125 10.2976C8.8125 9.97024 8.92878 9.68998 9.16133 9.45685C9.39388 9.22371 9.67344 9.10714 10 9.10714C10.3266 9.10714 10.6061 9.22371 10.8387 9.45685C11.0712 9.68998 11.1875 9.97024 11.1875 10.2976C11.1875 10.625 11.0712 10.9053 10.8387 11.1384C10.6061 11.3715 10.3266 11.4881 10 11.4881ZM10 6.13095C10.1682 6.13095 10.3092 6.07391 10.423 5.95982C10.5368 5.84573 10.5938 5.70437 10.5938 5.53571C10.5938 5.36706 10.5368 5.22569 10.423 5.11161C10.3092 4.99752 10.1682 4.94048 10 4.94048C9.83177 4.94048 9.69076 4.99752 9.57695 5.11161C9.46315 5.22569 9.40625 5.36706 9.40625 5.53571C9.40625 5.70437 9.46315 5.84573 9.57695 5.95982C9.69076 6.07391 9.83177 6.13095 10 6.13095ZM12.8352 10L12.1523 8.80952C12.1029 8.72024 12.0781 8.62103 12.0781 8.51191C12.0781 8.40278 12.1029 8.30357 12.1523 8.21429L12.8352 7.02381C12.8846 6.9246 12.9539 6.8502 13.043 6.8006C13.132 6.75099 13.231 6.72619 13.3398 6.72619H14.6758C14.7846 6.72619 14.8836 6.75099 14.9727 6.8006C15.0617 6.8502 15.131 6.9246 15.1805 7.02381L15.8633 8.21429C15.9128 8.30357 15.9375 8.40278 15.9375 8.51191C15.9375 8.62103 15.9128 8.72024 15.8633 8.80952L15.1805 10C15.131 10.0992 15.0617 10.1736 14.9727 10.2232C14.8836 10.2728 14.7846 10.2976 14.6758 10.2976H13.3398C13.231 10.2976 13.132 10.2728 13.043 10.2232C12.9539 10.1736 12.8846 10.0992 12.8352 10ZM13.6813 9.10714H14.3344L14.6609 8.51191L14.3344 7.91667H13.6813L13.3547 8.51191L13.6813 9.10714Z" fill="#191B19"/>
</svg>
