<svg width="20" height="20" viewBox="0 0 20 20" fill="none" xmlns="http://www.w3.org/2000/svg">
<rect width="20" height="20" rx="4" fill="#E1EAE2"/>
<path d="M7.42188 13.7879C6.61979 13.7879 6.01042 13.488 5.59375 12.8882C5.17708 12.2885 4.97917 11.6151 5 10.868L4.71875 10.4419C4.60417 10.263 4.41406 9.85794 4.14844 9.22663C3.88281 8.59531 3.75 7.80091 3.75 6.84342C3.75 5.75967 4.01562 4.85741 4.54688 4.13667C5.07812 3.41592 5.75 3.05554 6.5625 3.05554C7.44792 3.05554 8.13802 3.45274 8.63281 4.24715C9.1276 5.04155 9.375 5.90697 9.375 6.84342C9.375 7.45369 9.29167 8.01661 9.125 8.53218C8.95833 9.04776 8.8125 9.46337 8.6875 9.77903L8.8125 9.9842C8.89583 10.1315 9.01042 10.3656 9.15625 10.6865C9.30208 11.0075 9.375 11.3415 9.375 11.6887C9.375 12.2885 9.1901 12.7883 8.82031 13.1881C8.45052 13.588 7.98438 13.7879 7.42188 13.7879ZM5.78125 9.74746L7.5 9.40024C7.63542 9.06354 7.77344 8.67949 7.91406 8.24809C8.05469 7.8167 8.125 7.34847 8.125 6.84342C8.125 6.21211 7.98177 5.6334 7.69531 5.10731C7.40885 4.58122 7.03125 4.31817 6.5625 4.31817C6.09375 4.31817 5.71615 4.58122 5.42969 5.10731C5.14323 5.6334 5 6.21211 5 6.84342C5 7.5063 5.09115 8.0929 5.27344 8.60321C5.45573 9.11352 5.625 9.49494 5.78125 9.74746ZM7.42188 12.5252C7.61979 12.5252 7.78646 12.4516 7.92188 12.3043C8.05729 12.157 8.125 11.9518 8.125 11.6887C8.125 11.5099 8.08333 11.3257 8 11.1364C7.91667 10.947 7.83333 10.7786 7.75 10.6313L6.25 10.947C6.25 11.3678 6.34115 11.7361 6.52344 12.0518C6.70573 12.3674 7.00521 12.5252 7.42188 12.5252ZM12.5781 16.9444C12.0156 16.9444 11.5495 16.7445 11.1797 16.3447C10.8099 15.9449 10.625 15.4451 10.625 14.8453C10.625 14.4981 10.6979 14.164 10.8438 13.8431C10.9896 13.5222 11.1042 13.2881 11.1875 13.1408L11.3125 12.9356C11.1875 12.6199 11.0417 12.2043 10.875 11.6887C10.7083 11.1732 10.625 10.6103 10.625 9.99999C10.625 9.06354 10.8724 8.19811 11.3672 7.40371C11.862 6.60931 12.5521 6.21211 13.4375 6.21211C14.25 6.21211 14.9219 6.57248 15.4531 7.29323C15.9844 8.01398 16.25 8.91623 16.25 9.99999C16.25 10.9575 16.1172 11.7492 15.8516 12.3753C15.5859 13.0014 15.3958 13.4038 15.2812 13.5827L15 14.0246C15.0104 14.7717 14.8099 15.4451 14.3984 16.0448C13.987 16.6446 13.3802 16.9444 12.5781 16.9444ZM14.2188 12.904C14.375 12.6515 14.5443 12.2727 14.7266 11.7677C14.9089 11.2626 15 10.6734 15 9.99999C15 9.36867 14.8568 8.78997 14.5703 8.26388C14.2839 7.73778 13.9062 7.47473 13.4375 7.47473C12.9688 7.47473 12.5911 7.73778 12.3047 8.26388C12.0182 8.78997 11.875 9.36867 11.875 9.99999C11.875 10.505 11.9453 10.9706 12.0859 11.3968C12.2266 11.8229 12.3646 12.2096 12.5 12.5568L14.2188 12.904ZM12.5781 15.6818C12.9948 15.6818 13.2943 15.524 13.4766 15.2083C13.6589 14.8927 13.75 14.5244 13.75 14.1035L12.25 13.7879C12.1667 13.9352 12.0833 14.1035 12 14.2929C11.9167 14.4823 11.875 14.6664 11.875 14.8453C11.875 15.0558 11.9401 15.2478 12.0703 15.4214C12.2005 15.595 12.3698 15.6818 12.5781 15.6818Z" fill="#094F0C"/>
</svg>
